<mxfile host="app.diagrams.net" agent="Mozilla/5.0 (Windows NT 10.0; Win64; x64; rv:133.0) Gecko/20100101 Firefox/133.0" version="25.0.3">
  <diagram name="Page-1" id="12e1b939-464a-85fe-373e-61e167be1490">
    <mxGraphModel dx="1500" dy="769" grid="1" gridSize="10" guides="1" tooltips="1" connect="1" arrows="1" fold="1" page="1" pageScale="1.5" pageWidth="1169" pageHeight="826" background="none" math="0" shadow="0">
      <root>
        <mxCell id="0" />
        <mxCell id="1" parent="0" />
        <mxCell id="sAr1MRhvak9_72zHw_UW-10" style="edgeStyle=orthogonalEdgeStyle;rounded=0;orthogonalLoop=1;jettySize=auto;html=1;" edge="1" parent="1" source="sAr1MRhvak9_72zHw_UW-7" target="sAr1MRhvak9_72zHw_UW-9">
          <mxGeometry relative="1" as="geometry" />
        </mxCell>
        <mxCell id="sAr1MRhvak9_72zHw_UW-7" value="" style="rounded=1;whiteSpace=wrap;html=1;dashed=1;dashPattern=8 8;fillColor=none;" vertex="1" parent="1">
          <mxGeometry x="450" y="371" width="290" height="560" as="geometry" />
        </mxCell>
        <mxCell id="60da8b9f42644d3a-2" value="&#xa;&lt;font style=&quot;font-size: 20px;&quot;&gt;Business Logic&lt;/font&gt;&#xa;&#xa;" style="whiteSpace=wrap;html=1;rounded=1;shadow=0;strokeWidth=1;fontSize=20;align=center;fillColor=#FEFEFE;strokeColor=#000000;" parent="1" vertex="1">
          <mxGeometry x="476" y="415" width="240" height="470" as="geometry" />
        </mxCell>
        <mxCell id="sAr1MRhvak9_72zHw_UW-8" style="edgeStyle=orthogonalEdgeStyle;rounded=0;orthogonalLoop=1;jettySize=auto;html=1;entryX=0;entryY=0.5;entryDx=0;entryDy=0;" edge="1" parent="1" source="sAr1MRhvak9_72zHw_UW-4" target="sAr1MRhvak9_72zHw_UW-7">
          <mxGeometry relative="1" as="geometry" />
        </mxCell>
        <mxCell id="sAr1MRhvak9_72zHw_UW-4" value="Actor" style="shape=umlActor;verticalLabelPosition=bottom;verticalAlign=top;html=1;outlineConnect=0;" vertex="1" parent="1">
          <mxGeometry x="270" y="600" width="50" height="100" as="geometry" />
        </mxCell>
        <mxCell id="sAr1MRhvak9_72zHw_UW-5" value="" style="rounded=0;whiteSpace=wrap;html=1;strokeColor=#FFFAFA;" vertex="1" parent="1">
          <mxGeometry x="262.5" y="701" width="45" height="20" as="geometry" />
        </mxCell>
        <mxCell id="sAr1MRhvak9_72zHw_UW-6" value="&lt;div&gt;User&lt;/div&gt;" style="text;html=1;align=center;verticalAlign=middle;whiteSpace=wrap;rounded=0;" vertex="1" parent="1">
          <mxGeometry x="247.5" y="681.5" width="95" height="59" as="geometry" />
        </mxCell>
        <mxCell id="sAr1MRhvak9_72zHw_UW-9" value="" style="shape=cylinder3;whiteSpace=wrap;html=1;boundedLbl=1;backgroundOutline=1;size=15;" vertex="1" parent="1">
          <mxGeometry x="900" y="565" width="140" height="170" as="geometry" />
        </mxCell>
        <mxCell id="sAr1MRhvak9_72zHw_UW-11" value="&lt;font style=&quot;font-size: 18px;&quot;&gt;Data store&lt;/font&gt;" style="text;html=1;align=center;verticalAlign=middle;whiteSpace=wrap;rounded=0;" vertex="1" parent="1">
          <mxGeometry x="935" y="633.5" width="70" height="35" as="geometry" />
        </mxCell>
        <mxCell id="sAr1MRhvak9_72zHw_UW-12" value="&lt;font style=&quot;font-size: 16px;&quot;&gt;Single server&lt;/font&gt;" style="text;html=1;align=center;verticalAlign=middle;whiteSpace=wrap;rounded=0;" vertex="1" parent="1">
          <mxGeometry x="504" y="333" width="190" height="30" as="geometry" />
        </mxCell>
        <mxCell id="sAr1MRhvak9_72zHw_UW-13" value="&lt;font style=&quot;font-size: 16px;&quot;&gt;Monolith&lt;/font&gt;" style="text;html=1;align=center;verticalAlign=middle;whiteSpace=wrap;rounded=0;" vertex="1" parent="1">
          <mxGeometry x="500" y="385" width="190" height="30" as="geometry" />
        </mxCell>
        <mxCell id="sAr1MRhvak9_72zHw_UW-14" value="" style="rounded=1;whiteSpace=wrap;html=1;" vertex="1" parent="1">
          <mxGeometry x="500" y="450" width="190" height="70" as="geometry" />
        </mxCell>
        <mxCell id="sAr1MRhvak9_72zHw_UW-19" style="edgeStyle=orthogonalEdgeStyle;rounded=0;orthogonalLoop=1;jettySize=auto;html=1;entryX=0.5;entryY=0;entryDx=0;entryDy=0;" edge="1" parent="1" source="sAr1MRhvak9_72zHw_UW-15" target="sAr1MRhvak9_72zHw_UW-16">
          <mxGeometry relative="1" as="geometry" />
        </mxCell>
        <mxCell id="sAr1MRhvak9_72zHw_UW-15" value="" style="rounded=1;whiteSpace=wrap;html=1;" vertex="1" parent="1">
          <mxGeometry x="500" y="600" width="190" height="70" as="geometry" />
        </mxCell>
        <mxCell id="sAr1MRhvak9_72zHw_UW-16" value="" style="rounded=1;whiteSpace=wrap;html=1;" vertex="1" parent="1">
          <mxGeometry x="501" y="755" width="190" height="70" as="geometry" />
        </mxCell>
        <mxCell id="sAr1MRhvak9_72zHw_UW-18" style="edgeStyle=orthogonalEdgeStyle;rounded=0;orthogonalLoop=1;jettySize=auto;html=1;" edge="1" parent="1" target="sAr1MRhvak9_72zHw_UW-15">
          <mxGeometry relative="1" as="geometry">
            <mxPoint x="595" y="520" as="sourcePoint" />
            <mxPoint x="595" y="570" as="targetPoint" />
          </mxGeometry>
        </mxCell>
        <mxCell id="sAr1MRhvak9_72zHw_UW-17" value="&lt;font style=&quot;font-size: 20px;&quot;&gt;GUI&lt;/font&gt;" style="text;html=1;align=center;verticalAlign=middle;whiteSpace=wrap;rounded=0;" vertex="1" parent="1">
          <mxGeometry x="500" y="455" width="190" height="60" as="geometry" />
        </mxCell>
        <mxCell id="sAr1MRhvak9_72zHw_UW-20" value="&lt;font style=&quot;font-size: 20px;&quot;&gt;Business Logic&lt;/font&gt;" style="text;html=1;align=center;verticalAlign=middle;whiteSpace=wrap;rounded=0;" vertex="1" parent="1">
          <mxGeometry x="500" y="610" width="190" height="60" as="geometry" />
        </mxCell>
        <mxCell id="sAr1MRhvak9_72zHw_UW-22" value="&lt;font style=&quot;font-size: 25px;&quot;&gt;Data access&lt;/font&gt;" style="text;html=1;align=center;verticalAlign=middle;whiteSpace=wrap;rounded=0;" vertex="1" parent="1">
          <mxGeometry x="504" y="765" width="190" height="60" as="geometry" />
        </mxCell>
      </root>
    </mxGraphModel>
  </diagram>
</mxfile>
